<svg xmlns="http://www.w3.org/2000/svg" width="16" height="16" viewBox="0 0 16 16">
  <g id="Add" fill="#fafafa">
    <path d="M 8.5 15.50020027160645 L 7.500200271606445 15.50020027160645 L 7.500200271606445 9 L 7.500200271606445 8.5 L 7.000200271606445 8.5 L 0.5000001192092896 8.5 L 0.5000001192092896 7.500200271606445 L 7.000200271606445 7.500200271606445 L 7.500200271606445 7.500200271606445 L 7.500200271606445 7.000200271606445 L 7.500200271606445 0.5000001192092896 L 8.5 0.5000001192092896 L 8.5 7.000200271606445 L 8.5 7.500200271606445 L 9 7.500200271606445 L 15.50020027160645 7.500200271606445 L 15.50020027160645 8.5 L 9 8.5 L 8.5 8.5 L 8.5 9 L 8.5 15.50020027160645 Z" stroke="none"/>
    <path d="M 9 16.00020027160645 L 7.000200271606445 16.00020027160645 L 7.000200271606445 9 L 1.358032193365943e-07 9 L 1.358032193365943e-07 7.000200271606445 L 7.000200271606445 7.000200271606445 L 7.000200271606445 1.358032193365943e-07 L 9 1.358032193365943e-07 L 9 7.000200271606445 L 16.00020027160645 7.000200271606445 L 16.00020027160645 9 L 9 9 L 9 16.00020027160645 Z" stroke="none" fill="#cecece"/>
  </g>
</svg>
