<svg xmlns="http://www.w3.org/2000/svg" width="25.755" height="25.755" viewBox="0 0 17.755 17.755">
  <g id="Close" transform="translate(-0.622 -0.622)" fill="none">
    <path d="M15.815,17.937,9.5,11.621,3.182,17.937a1.5,1.5,0,0,1-2.121-2.122L7.377,9.5,1.061,3.182A1.5,1.5,0,0,1,3.182,1.061L9.5,7.377l6.316-6.316a1.5,1.5,0,0,1,2.122,2.121L11.621,9.5l6.316,6.316a1.5,1.5,0,0,1-2.122,2.122Z" stroke="none"/>
    <path d="M 2.121750116348267 18.37642478942871 C 1.737900137901306 18.37642478942871 1.354050159454346 18.22994995117188 1.061100125312805 17.9370002746582 C 0.4752001464366913 17.35110092163086 0.4752001464366913 16.40069961547852 1.061100125312805 15.81480026245117 L 7.377110004425049 9.49878978729248 L 1.061100125312805 3.182400226593018 C 0.4752001464366913 2.596500158309937 0.4752001464366913 1.647000193595886 1.061100125312805 1.061100125312805 C 1.647000312805176 0.4752001464366913 2.596500158309937 0.475200355052948 3.182400226593018 1.061100125312805 L 9.49878978729248 7.377110004425049 L 15.81480026245117 1.061100125312805 C 16.40069961547852 0.4752001762390137 17.35110092163086 0.4752001762390137 17.9370002746582 1.061100125312805 C 18.52289962768555 1.646100163459778 18.52289962768555 2.596500158309937 17.9370002746582 3.182400226593018 L 11.62061023712158 9.49878978729248 L 17.9370002746582 15.81480026245117 C 18.52289962768555 16.40069961547852 18.52289962768555 17.35110092163086 17.9370002746582 17.9370002746582 C 17.35110855102539 18.52289390563965 16.40070724487305 18.52290534973145 15.81480026245117 17.9370002746582 L 9.49878978729248 11.62061023712158 L 3.182400226593018 17.9370002746582 C 2.889450073242188 18.22994995117188 2.505600214004517 18.37642478942871 2.121750116348267 18.37642478942871 Z" stroke="none" fill="#cecece"/>
  </g>
</svg>
