<svg xmlns="http://www.w3.org/2000/svg" width="19.9284" height="15.45" viewBox="0 0 33.214 25.75">
  <g id="lylics" fill="none">
    <path d="M18.214,20.75a5,5,0,0,1,8-4V8.25a1,1,0,0,1,1-1h5a1,1,0,1,1,0,2h-4v11a1.009,1.009,0,0,1-.012.155q.012.172.012.346a5,5,0,0,1-10,0ZM1.5,23.251a1.5,1.5,0,0,1,0-3h12a1.5,1.5,0,1,1,0,3Zm0-6.75a1.5,1.5,0,0,1,0-3h14a1.5,1.5,0,0,1,0,3Zm0-6.75a1.5,1.5,0,1,1,0-3h19a1.5,1.5,0,0,1,0,3ZM1.5,3a1.5,1.5,0,0,1,0-3H26.214a1.5,1.5,0,1,1,0,3Z" stroke="none"/>
    <path d="M 23.214599609375 23.74990081787109 C 24.8685302734375 23.74990081787109 26.2140998840332 22.40433120727539 26.2140998840332 20.75040054321289 C 26.2140998840332 20.68146133422852 26.211669921875 20.61094093322754 26.20688056945801 20.54079055786133 L 26.19170951843262 20.31870079040527 L 26.2140998840332 20.17399406433105 L 26.2140998840332 19.2508430480957 L 25.01313972473145 18.3487606048584 C 24.49164962768555 17.95705032348633 23.86972045898438 17.75 23.214599609375 17.75 C 21.5601692199707 17.75 20.21420097351074 19.09597015380859 20.21420097351074 20.75040054321289 C 20.21420097351074 22.40433120727539 21.5601692199707 23.74990081787109 23.214599609375 23.74990081787109 M 23.214599609375 25.74990081787109 C 20.45249938964844 25.74990081787109 18.21420097351074 23.51160049438477 18.21420097351074 20.75040054321289 C 18.21420097351074 17.98830032348633 20.45249938964844 15.75 23.214599609375 15.75 C 24.34004974365234 15.75 25.37874984741211 16.12202072143555 26.21430015563965 16.74962997436523 L 26.21430015563965 8.250300407409668 C 26.21430015563965 7.697700500488281 26.66160011291504 7.250400543212891 27.21420097351074 7.250400543212891 L 32.21369934082031 7.250400543212891 C 32.76630020141602 7.250400543212891 33.21360015869141 7.697700500488281 33.21360015869141 8.250300407409668 C 33.21360015869141 8.802900314331055 32.76630020141602 9.250200271606445 32.21369934082031 9.250200271606445 L 28.2140998840332 9.250200271606445 L 28.2140998840332 20.25 C 28.2140998840332 20.30255126953125 28.21002006530762 20.35415077209473 28.20223045349121 20.40450096130371 C 28.21003913879395 20.51884078979492 28.2140998840332 20.63408088684082 28.2140998840332 20.75040054321289 C 28.2140998840332 23.51160049438477 25.97579956054688 25.74990081787109 23.214599609375 25.74990081787109 Z M 13.5 23.25060081481934 L 1.500300049781799 23.25060081481934 C 0.6714000701904297 23.25060081481934 7.934570334100499e-08 22.57920074462891 7.934570334100499e-08 21.75030136108398 C 7.934570334100499e-08 20.92230033874512 0.6714000701904297 20.25 1.500300049781799 20.25 L 13.5 20.25 C 14.32800006866455 20.25 15.00030040740967 20.92230033874512 15.00030040740967 21.75030136108398 C 15.00030040740967 22.57920074462891 14.32800006866455 23.25060081481934 13.5 23.25060081481934 Z M 15.49979972839355 16.50060081481934 L 1.500300049781799 16.50060081481934 C 0.6714000701904297 16.50060081481934 7.934570334100499e-08 15.82920074462891 7.934570334100499e-08 15.00030040740967 C 7.934570334100499e-08 14.17230033874512 0.6714000701904297 13.5 1.500300049781799 13.5 L 15.49979972839355 13.5 C 16.32870101928711 13.5 17.00009918212891 14.17230033874512 17.00009918212891 15.00030040740967 C 17.00009918212891 15.82920074462891 16.32870101928711 16.50060081481934 15.49979972839355 16.50060081481934 Z M 20.50020027160645 9.750600814819336 L 1.500300049781799 9.750600814819336 C 0.6714000701904297 9.750600814819336 7.934570334100499e-08 9.078300476074219 7.934570334100499e-08 8.250300407409668 C 7.934570334100499e-08 7.421400547027588 0.6714000701904297 6.750000476837158 1.500300049781799 6.750000476837158 L 20.50020027160645 6.750000476837158 C 21.32819938659668 6.750000476837158 21.99959945678711 7.421400547027588 21.99959945678711 8.250300407409668 C 21.99959945678711 9.078300476074219 21.32819938659668 9.750600814819336 20.50020027160645 9.750600814819336 Z M 26.21430015563965 3.000600337982178 L 1.500300049781799 3.000600337982178 C 0.6714000701904297 3.000600337982178 7.934570334100499e-08 2.328300476074219 7.934570334100499e-08 1.500300407409668 C 7.934570334100499e-08 0.6714004278182983 0.6714000701904297 4.089355343239731e-07 1.500300049781799 4.089355343239731e-07 L 26.21430015563965 4.089355343239731e-07 C 27.04229927062988 4.089355343239731e-07 27.714599609375 0.6714004278182983 27.714599609375 1.500300407409668 C 27.714599609375 2.328300476074219 27.04229927062988 3.000600337982178 26.21430015563965 3.000600337982178 Z" stroke="none" fill="#fafafa"/>
  </g>
</svg>
