<svg width="40" height="40" viewBox="0 0 700 700" xmlns="http://www.w3.org/2000/svg">
    <g>
        <path d="m455 397.25c-8.2461 7.3633-17.215 13.875-26.773 19.426-4.0039 2.3086-6.9336 6.1055-8.1445 10.566-1.2148 4.457-0.61328 9.2148 1.668 13.234 2.3086 4.0469 6.1406 7.0117 10.641 8.2266s9.3008 0.58203 13.336-1.7539c11.66-6.7734 22.621-14.688 32.723-23.625 4.6602-4.1875 6.7266-10.543 5.4297-16.672-1.3008-6.1289-5.7695-11.098-11.727-13.039-5.957-1.9375-12.496-0.55078-17.152 3.6367z" fill="#cecece"/>
        <path d="m428.23 143.32c9.6367 5.4336 18.617 11.949 26.773 19.426 3.2344 2.8555 7.4102 4.4102 11.727 4.375 4.7305-0.011719 9.2578-1.9414 12.543-5.3438 3.2891-3.4062 5.0547-7.9961 4.9023-12.727-0.15625-4.7305-2.2188-9.1953-5.7227-12.379-10.023-9.0312-20.996-16.953-32.723-23.625-4-2.2969-8.7422-2.9219-13.195-1.7422-4.457 1.1797-8.2695 4.0664-10.605 8.043-2.3516 4.0117-3.0078 8.7969-1.8281 13.293 1.1836 4.5 4.1055 8.3438 8.1289 10.68z" fill="#cecece"/>
        <path d="m525 299.25c-4.5508-0.98438-9.3047-0.11719-13.211 2.4102-3.9102 2.5312-6.6484 6.5117-7.6133 11.066-2.2422 10.832-5.6445 21.395-10.152 31.5-1.9492 4.2422-2.1211 9.0898-0.47656 13.461s4.9648 7.9023 9.2266 9.8125c2.1992 1.0039 4.5859 1.5391 7 1.5742 3.418 0.011719 6.7617-0.97656 9.6211-2.8398 2.8633-1.8672 5.1133-4.5273 6.4805-7.6602 5.4453-12.312 9.6094-25.156 12.426-38.324 1.043-4.5508 0.22266-9.3281-2.2734-13.273-2.5-3.9414-6.4688-6.7227-11.027-7.7266z" fill="#cecece"/>
        <path d="m504 247.1c0.85547 3.9766 3.0703 7.5352 6.2617 10.059 3.1953 2.5234 7.168 3.8555 11.238 3.7656h3.6758c4.5547-0.96484 8.5352-3.707 11.062-7.6133 2.5312-3.9102 3.3984-8.6641 2.4102-13.211-3.1055-13.359-7.6836-26.328-13.648-38.676-2.7969-5.3047-8.1133-8.8086-14.09-9.2852-5.9766-0.48047-11.781 2.1367-15.383 6.9297-3.6016 4.793-4.5 11.098-2.3789 16.703 4.7734 10.008 8.4102 20.512 10.852 31.328z" fill="#cecece"/>
        <path d="m365.75 437.5h-15.75c-56.27 0-108.27-30.02-136.4-78.75-28.137-48.73-28.137-108.77 0-157.5 28.133-48.73 80.129-78.75 136.4-78.75h15.75 1.75c6.2539 0.3125 12.195-2.7344 15.594-7.9922 3.3945-5.2578 3.7305-11.93 0.875-17.5-2.8555-5.5703-8.4648-9.1953-14.719-9.5078h-19.25c-51.055 0-100.02 20.281-136.12 56.383-36.102 36.102-56.383 85.062-56.383 136.12s20.281 100.02 56.383 136.12c36.102 36.102 85.062 56.383 136.12 56.383 6.4766 0 12.949 0 19.25-0.875 4.6172-0.48438 8.8555-2.7852 11.777-6.3984 2.9219-3.6094 4.2891-8.2344 3.7969-12.852-0.65234-4.457-3-8.4922-6.5547-11.266-3.5508-2.7695-8.0352-4.0625-12.52-3.6094z" fill="#cecece"/>
        <path d="m358.75 280v-61.25c0-6.2539-3.3359-12.031-8.75-15.156s-12.086-3.125-17.5 0-8.75 8.9023-8.75 15.156v70c0.03125 5.8555 2.9844 11.305 7.875 14.523l52.5 35c2.8164 1.9766 6.1836 3.0156 9.625 2.9766 5.0195-0.039062 9.7773-2.2305 13.07-6.0156 3.293-3.7891 4.8008-8.8086 4.1445-13.781-0.66016-4.9766-3.4258-9.4297-7.5898-12.227z" fill="#cecece"/>
    </g>
</svg>
